<?xml version="1.0" encoding="utf-8"?>
<!-- Generator: Adobe Illustrator 21.0.0, SVG Export Plug-In . SVG Version: 6.00 Build 0)  -->
<svg version="1.1" id="Layer_1" xmlns="http://www.w3.org/2000/svg" xmlns:xlink="http://www.w3.org/1999/xlink" x="0px" y="0px"
	 viewBox="0 0 93.3 39" style="enable-background:new 0 0 93.3 39;" xml:space="preserve">
<style type="text/css">
	.st0{fill:#FFFFFF;}
</style>
<path class="st0" d="M26.1,9.8c1.5-4.4,2.5-2.7,2.4,0.8c0.4-1.2,1.1-5.3,2.8-4.1c0.7,0.6-1.7,5.1-2,6c-0.2,0.4-1,0.1-1.3,0.1
	c-0.7-0.2-0.7-1.8-0.7-2.4c-0.4,0.8-0.7,1.6-1,2.5c-0.3,0.5-1.5,0.1-1.6-0.4c-0.3-1.1-1.5-6.1,0.2-5.7c1.4,0.4,0.8,3.1,0.8,4.2
	C25.9,10.5,26,10.1,26.1,9.8z"/>
<path class="st0" d="M35.5,6.9c1.4,2.5-1.5,7.8-4,4.7C29.5,9.1,33.6,3.5,35.5,6.9z M33.7,7.3c-0.5,0.6-1.8,4.4-0.3,4.1
	C34.8,11.2,34.3,6.7,33.7,7.3z"/>
<path class="st0" d="M36.2,10.8c-0.2-1-0.4-5.5,1.3-4.7c1.6,0.8-0.9,4.9,0.4,5.2c1,0.2,1.4-4.8,1.5-5.3c0-0.6,1.2-0.1,1.4,0.1
	c0.5,0.5-0.1,1.3-0.1,1.9C40.6,10.1,37.1,14.8,36.2,10.8z"/>
<path class="st0" d="M43.1,11.7c-0.5,0.1-2.5,0.6-2.3-0.7c0-1.2,0-5.2,1.2-5.5c2.3-0.6,0.4,4.4,0.3,5.2c0.8-0.2,1.7-0.5,2,0.5
	C44.4,11.6,43.2,11.7,43.1,11.7z"/>
<path class="st0" d="M45.5,5.6c6.5-2.8,3.9,8.7-0.5,5.8c-1-0.8-0.2-4.2-0.2-5.4C45.1,5.8,45.3,5.7,45.5,5.6z M47,10
	c0.7-0.7,2-4.1-0.3-3.2c-0.3,1.3-0.5,2.5-0.6,3.8C46.5,10.4,46.8,10.2,47,10z"/>
<path class="st0" d="M56.9,6.5c-0.5,1-1.1,2-1.7,2.9c-0.2,1.2,0.1,2.2-1.3,1.7c-0.2-0.1-0.3-0.3-0.3-0.5c0-0.6,0.1-1.1,0.1-1.7
	c-0.5-1.2-1-2.5-1.5-3.7C52.1,5.1,52.2,5,52.4,5c0.6-0.1,1.1-0.1,1.4,0.5c0.3,0.7,0.6,1.4,0.8,2.2c0.5-0.9,0.9-1.8,1.4-2.7
	C56.2,4.3,57,5,57.2,5.2C57.5,5.6,57.1,6.2,56.9,6.5z"/>
<path class="st0" d="M61.5,5.5c1.4,2.5-1.5,7.8-4,4.7C55.5,7.8,59.6,2.1,61.5,5.5z M59.7,6c-0.5,0.6-1.8,4.4-0.3,4.1
	C60.8,9.8,60.3,5.4,59.7,6z"/>
<path class="st0" d="M62.2,9.5c-0.2-1-0.4-5.5,1.3-4.7c1.6,0.8-0.9,4.9,0.4,5.2c1,0.2,1.4-4.8,1.5-5.3c0-0.6,1.2-0.1,1.4,0.1
	c0.5,0.5-0.1,1.3-0.1,1.9C66.6,8.7,63.1,13.4,62.2,9.5z"/>
<path class="st0" d="M9.7,31.3c-1.6,7.3-5.9,3.1-3.6-3c1.4-3.8-0.5-8.4,3.1-11.4c7.5-6.2,16.2,4.9,4.8,10.5c7.6,8.1,1.2,6.9-3.8,1.1
	C10,29.5,9.9,30.4,9.7,31.3z M11.5,22.4c-0.2,0.8-0.4,1.7-0.6,2.6c1.2-0.4,6.3-2.9,5.5-5.1c-0.6-1.3-3.7-0.1-4.3,0.2
	C11.9,20.9,11.7,21.6,11.5,22.4z"/>
<path class="st0" d="M25,29.4c-1,0.2-1.9,0.4-2.7,0.6c-1,2.1-2.1,4.9-4.4,2c-2.2-2.8,5.7-17.2,10-17.1C34,15.1,33.3,24,32,28.5
	c-1.1,4-3.3,7.2-4,0.4C27,29.1,26,29.2,25,29.4z M25.9,25.8c0.6-0.1,1.2-0.2,1.9-0.2c-0.1-2.2-0.2-4.4-0.2-6.7
	c-1.2,2.4-2.4,4.8-3.5,7.2C24.6,26,25.3,25.9,25.9,25.8z"/>
<path class="st0" d="M44.7,17c-0.6,0.1-1.3,0.2-1.9,0.3c-0.6,2.6-1,15.8-4.8,14.3C33.9,30,37,21.4,37.7,18.1c-5.6,1.2-6-1.8-0.5-3.9
	C41.8,12.5,51,16.2,44.7,17z"/>
<path class="st0" d="M58.6,22.1c-0.5,1.7-1.8,12.1-3.7,12.2c-3.7,0.1-2.6-3.3-2.2-5.7c-1.1,0.2-2.3,0.4-3.4,0.6
	c-2.5,12.7-5.8-1.7-3.3-7.9c3.4-8.4,5.3-2.4,3.9,4.3c1.1-0.2,2.2-0.3,3.3-0.4c0.5-2.5,0.2-9.7,3.8-8.8C60.6,17.2,59.4,19,58.6,22.1z
	"/>
<path class="st0" d="M64.5,13.5c7-1.8,13.9,1.3,3.2,3.2c-0.4,1.3-0.7,2.7-1,4c6.7-1.1,4.5,2.6-0.9,3.9c-0.2,0.8-0.3,1.6-0.5,2.4
	c10.1-2,3.9,6-1.6,3.5c-5.2-2.5-1.5-12-1-16.5C63.1,13.9,63.8,13.7,64.5,13.5z"/>
<path class="st0" d="M76.7,29.8c-0.5,2.9,0.1,2.1-1.3,2.7c-4.3-1-3.1-11.7-1.1-14.7c6.8-10.4,21.4,5.4,6.8,8.3
	c3.3,4.8,0.7,6-3.9,1.2C77,28.2,76.9,29.1,76.7,29.8z M78.5,21.3c-0.4,1.1-0.8,1.6-0.8,2.5c4.1-0.8,8.2-7,1.4-4.8
	C78.9,19.7,78.7,20.5,78.5,21.3z"/>
</svg>
